<svg xmlns="http://www.w3.org/2000/svg" viewBox="0 0 626 100" width="626" height="100" role="img" aria-label="Privacyassay">
  <g><path d="M15 63 A31 31 0 0 1 67 63 A31 31 0 0 1 15 63 Z" fill="none" stroke="#6EA8FF" stroke-width="6.5"/><circle cx="47" cy="58" r="9" fill="#6EA8FF"/><g fill="#6EA8FF"><circle cx="75" cy="18" r="6"/><circle cx="62" cy="39" r="6"/><circle cx="88" cy="39" r="6"/></g></g>
  <g transform="translate(141.00 18.50) scale(0.071591) translate(-20 690)"><g transform="scale(1 -1)"><path fill="#FFFFFF" transform="translate(0 0)" d="M190 0H40V670H390Q508 670 576 606Q645 542 645 428Q645 314 576 250Q507 185 390 185H190ZM374 535H190V320H374Q439 320 468 344Q496 367 496 428Q496 488 467 512Q438 535 374 535Z"/><path fill="#FFFFFF" transform="translate(658 0)" d="M190 0H40V501H179V368H188Q199 433 242 472Q284 511 356 511Q436 511 475 463Q514 415 514 336V253H364V305Q364 347 345 366Q326 384 281 384Q232 384 211 361Q190 338 190 290Z"/><path fill="#FFFFFF" transform="translate(1186 0)" d="M190 552H40V670H190ZM190 0H40V501H190Z"/><path fill="#FFFFFF" transform="translate(1415 0)" d="M413 0H228L0 501H167L317 146H327L478 501H642Z"/><path fill="#FFFFFF" transform="translate(2057 0)" d="M194 -10Q113 -10 67 26Q21 61 21 124Q21 238 183 255L398 277V296Q398 344 374 362Q350 379 289 379Q231 379 206 362Q182 344 182 302V298H31V301Q31 395 104 453Q177 511 300 511Q422 511 484 453Q546 395 546 294V0H406V115H398Q380 56 328 23Q276 -10 194 -10ZM172 134Q172 96 237 96Q316 96 356 118Q395 139 398 191L224 171Q172 167 172 134Z"/><path fill="#FFFFFF" transform="translate(2639 0)" d="M307 -10Q178 -10 102 60Q25 131 25 250Q25 370 102 440Q178 511 307 511Q428 511 503 452Q578 392 578 295V281H429V289Q429 376 304 376Q236 376 205 347Q174 318 174 250Q174 182 205 154Q236 125 304 125Q429 125 429 212V220H578V206Q578 109 503 50Q428 -10 307 -10Z"/><path fill="#FFFFFF" transform="translate(3242 0)" d="M136 -170H54V-34H177Q225 -34 240 -2L-5 501H165L271 272L313 154H323L363 273L458 501H625L377 -36Q342 -113 288 -142Q234 -170 136 -170Z"/><path fill="#6EA8FF" transform="translate(3863 0)" d="M194 -10Q113 -10 67 26Q21 61 21 124Q21 238 183 255L398 277V296Q398 344 374 362Q350 379 289 379Q231 379 206 362Q182 344 182 302V298H31V301Q31 395 104 453Q177 511 300 511Q422 511 484 453Q546 395 546 294V0H406V115H398Q380 56 328 23Q276 -10 194 -10ZM172 134Q172 96 237 96Q316 96 356 118Q395 139 398 191L224 171Q172 167 172 134Z"/><path fill="#6EA8FF" transform="translate(4445 0)" d="M293 -10Q167 -10 99 38Q31 85 31 172V175H181V166Q181 133 205 121Q229 109 294 109Q352 109 372 119Q393 129 393 152Q393 173 378 182Q364 190 319 196L178 213Q22 230 22 353Q22 423 84 467Q146 511 269 511Q393 511 460 464Q526 418 526 327V324H376V330Q376 363 353 378Q330 392 264 392Q209 392 190 382Q170 372 170 347Q170 327 186 318Q202 308 250 302L357 289Q456 278 498 244Q541 209 541 146Q541 75 474 32Q408 -10 293 -10Z"/><path fill="#6EA8FF" transform="translate(5007 0)" d="M293 -10Q167 -10 99 38Q31 85 31 172V175H181V166Q181 133 205 121Q229 109 294 109Q352 109 372 119Q393 129 393 152Q393 173 378 182Q364 190 319 196L178 213Q22 230 22 353Q22 423 84 467Q146 511 269 511Q393 511 460 464Q526 418 526 327V324H376V330Q376 363 353 378Q330 392 264 392Q209 392 190 382Q170 372 170 347Q170 327 186 318Q202 308 250 302L357 289Q456 278 498 244Q541 209 541 146Q541 75 474 32Q408 -10 293 -10Z"/><path fill="#6EA8FF" transform="translate(5569 0)" d="M194 -10Q113 -10 67 26Q21 61 21 124Q21 238 183 255L398 277V296Q398 344 374 362Q350 379 289 379Q231 379 206 362Q182 344 182 302V298H31V301Q31 395 104 453Q177 511 300 511Q422 511 484 453Q546 395 546 294V0H406V115H398Q380 56 328 23Q276 -10 194 -10ZM172 134Q172 96 237 96Q316 96 356 118Q395 139 398 191L224 171Q172 167 172 134Z"/><path fill="#6EA8FF" transform="translate(6151 0)" d="M136 -170H54V-34H177Q225 -34 240 -2L-5 501H165L271 272L313 154H323L363 273L458 501H625L377 -36Q342 -113 288 -142Q234 -170 136 -170Z"/></g></g>
</svg>
